<svg width="211" height="43" viewBox="0 0 211 43" fill="none" xmlns="http://www.w3.org/2000/svg">
<path d="M14.37 33V30.795C12.93 32.625 10.92 33.54 8.34 33.54C5.94 33.54 3.975 32.79 2.445 31.29C0.915 29.76 0.15 27.36 0.15 24.09V10.005H5.415V23.145C5.415 26.715 6.855 28.5 9.735 28.5C12.825 28.5 14.37 26.745 14.37 23.235V10.005H19.635V33H14.37ZM34.1756 33.54C31.9556 33.54 30.2156 32.745 28.9556 31.155V39.615L23.6906 42.045V10.005H28.9556V11.76C30.2156 10.23 31.9706 9.465 34.2206 9.465C37.1306 9.465 39.4256 10.53 41.1056 12.66C42.8156 14.76 43.6706 17.715 43.6706 21.525C43.6706 25.245 42.8006 28.185 41.0606 30.345C39.3206 32.475 37.0256 33.54 34.1756 33.54ZM33.4106 28.5C35.0006 28.5 36.2306 27.9 37.1006 26.7C37.9706 25.5 38.4056 23.775 38.4056 21.525C38.4056 19.395 37.9706 17.685 37.1006 16.395C36.2306 15.105 35.0006 14.46 33.4106 14.46C31.4606 14.46 29.9756 15.21 28.9556 16.71V26.25C30.0056 27.75 31.4906 28.5 33.4106 28.5ZM46.8357 33V2.985L52.1007 0.509997V33H46.8357ZM65.7962 33.54C62.5562 33.54 59.9912 32.475 58.1012 30.345C56.2112 28.215 55.2662 25.275 55.2662 21.525C55.2662 17.775 56.2112 14.835 58.1012 12.705C59.9912 10.545 62.5562 9.465 65.7962 9.465C69.0362 9.465 71.6012 10.545 73.4912 12.705C75.4112 14.835 76.3712 17.775 76.3712 21.525C76.3712 25.275 75.4262 28.215 73.5362 30.345C71.6462 32.475 69.0662 33.54 65.7962 33.54ZM65.7962 28.5C67.4462 28.5 68.7362 27.885 69.6662 26.655C70.6262 25.425 71.1062 23.715 71.1062 21.525C71.1062 19.335 70.6262 17.61 69.6662 16.35C68.7362 15.09 67.4462 14.46 65.7962 14.46C64.2062 14.46 62.9312 15.105 61.9712 16.395C61.0112 17.655 60.5312 19.365 60.5312 21.525C60.5312 23.685 60.9962 25.395 61.9262 26.655C62.8862 27.885 64.1762 28.5 65.7962 28.5ZM92.4063 33V31.155C90.8763 32.745 88.8363 33.54 86.2863 33.54C83.8263 33.54 81.8163 32.88 80.2563 31.56C78.7263 30.21 77.9613 28.32 77.9613 25.89C77.9613 23.4 78.8313 21.51 80.5713 20.22C82.3413 18.93 84.4713 18.285 86.9613 18.285C89.1513 18.285 90.9663 18.69 92.4063 19.5V18.285C92.4063 16.815 92.0313 15.75 91.2813 15.09C90.5613 14.43 89.4363 14.1 87.9063 14.1C85.4163 14.1 83.1363 14.82 81.0663 16.26L79.4463 11.985C81.9363 10.305 84.9363 9.465 88.4463 9.465C89.6463 9.465 90.6963 9.57 91.5963 9.78C92.5263 9.96 93.4713 10.335 94.4313 10.905C95.4213 11.475 96.1863 12.375 96.7263 13.605C97.2663 14.835 97.5363 16.365 97.5363 18.195V33H92.4063ZM87.2763 28.905C89.2863 28.905 90.9963 28.17 92.4063 26.7V23.73C91.0863 23.1 89.5563 22.785 87.8163 22.785C86.4063 22.785 85.2663 23.04 84.3963 23.55C83.5263 24.06 83.0913 24.84 83.0913 25.89C83.0913 26.82 83.4513 27.555 84.1713 28.095C84.8913 28.635 85.9263 28.905 87.2763 28.905ZM109.548 33.54C106.608 33.54 104.283 32.475 102.573 30.345C100.863 28.215 100.008 25.26 100.008 21.48C100.008 17.79 100.893 14.865 102.663 12.705C104.433 10.545 106.728 9.465 109.548 9.465C111.768 9.465 113.493 10.185 114.723 11.625V2.895L119.988 0.509997V33H114.723V31.335C113.583 32.805 111.858 33.54 109.548 33.54ZM110.358 28.5C112.308 28.5 113.763 27.765 114.723 26.295V16.665C113.733 15.195 112.278 14.46 110.358 14.46C108.738 14.46 107.478 15.075 106.578 16.305C105.708 17.505 105.273 19.23 105.273 21.48C105.273 23.61 105.723 25.32 106.623 26.61C107.523 27.87 108.768 28.5 110.358 28.5Z" fill="#163665"/>
<path d="M143.403 33V20.085H130.893V33H124.053V1.5H130.893V13.56H143.403V1.5H150.288V33H143.403ZM167.227 33.54C165.547 33.54 163.957 33.33 162.457 32.91C160.987 32.46 159.607 31.77 158.317 30.84C157.027 29.88 155.992 28.545 155.212 26.835C154.462 25.125 154.087 23.13 154.087 20.85V1.5H160.927V20.85C160.927 23.1 161.422 24.675 162.412 25.575C163.432 26.475 165.037 26.925 167.227 26.925C169.357 26.925 170.932 26.475 171.952 25.575C173.002 24.645 173.527 23.07 173.527 20.85V1.5H180.367V20.85C180.367 23.1 179.992 25.08 179.242 26.79C178.492 28.47 177.472 29.79 176.182 30.75C174.922 31.71 173.542 32.415 172.042 32.865C170.542 33.315 168.937 33.54 167.227 33.54ZM184.175 1.5H199.025C202.625 1.5 205.25 2.325 206.9 3.975C208.58 5.595 209.42 7.62 209.42 10.05C209.42 13.29 208.235 15.465 205.865 16.575C207.395 17.145 208.535 18.09 209.285 19.41C210.065 20.73 210.455 22.11 210.455 23.55C210.455 26.16 209.57 28.395 207.8 30.255C206.03 32.085 203.3 33 199.61 33H184.175V1.5ZM198.35 13.785C201.08 13.785 202.445 12.795 202.445 10.815C202.445 8.865 201.32 7.89 199.07 7.89H191.015V13.785H198.35ZM199.925 26.565C201.185 26.565 202.1 26.25 202.67 25.62C203.24 24.99 203.525 24.255 203.525 23.415C203.525 21.105 201.92 19.95 198.71 19.95H191.015V26.565H199.925Z" fill="#256EDA"/>
</svg>
